<svg width="45" height="40" viewBox="0 0 45 40" fill="none" xmlns="http://www.w3.org/2000/svg">
<ellipse cx="22.5" cy="20" rx="22.5" ry="20" fill="#1829DB"/>
<path d="M28.5 14.5H28.51M18 10H28C30.7614 10 33 12.2386 33 15V25C33 27.7614 30.7614 30 28 30H18C15.2386 30 13 27.7614 13 25V15C13 12.2386 15.2386 10 18 10ZM27 19.37C27.1234 20.2022 26.9813 21.0522 26.5938 21.799C26.2063 22.5458 25.5931 23.1514 24.8416 23.5297C24.0901 23.9079 23.2384 24.0396 22.4078 23.9059C21.5771 23.7723 20.8098 23.3801 20.2148 22.7852C19.6199 22.1902 19.2277 21.4229 19.0941 20.5922C18.9604 19.7616 19.0921 18.9099 19.4703 18.1584C19.8486 17.4069 20.4542 16.7937 21.201 16.4062C21.9478 16.0187 22.7978 15.8766 23.63 16C24.4789 16.1259 25.2649 16.5215 25.8717 17.1283C26.4785 17.7351 26.8741 18.5211 27 19.37Z" stroke="white" stroke-width="2" stroke-linecap="round" stroke-linejoin="round"/>
</svg>
